<?xml version="1.0" standalone="no"?>
<!DOCTYPE svg PUBLIC "-//W3C//DTD SVG 20010904//EN"
 "http://www.w3.org/TR/2001/REC-SVG-20010904/DTD/svg10.dtd">
<svg version="1.0" xmlns="http://www.w3.org/2000/svg"
 width="500.000000pt" height="500.000000pt" viewBox="0 0 500.000000 500.000000"
 preserveAspectRatio="xMidYMid meet">
<metadata>
Created by potrace 1.11, written by Peter Selinger 2001-2013
</metadata>
<g transform="translate(0.000000,500.000000) scale(0.100000,-0.100000)"
fill="#000000" stroke="none">
<path d="M1600 4489 c-198 -21 -320 -53 -468 -126 -219 -107 -388 -276 -495
-494 -75 -153 -105 -269 -127 -488 -13 -137 -13 -1625 0 -1762 22 -219 52
-335 127 -488 153 -312 447 -532 797 -596 170 -31 298 -35 1066 -35 768 0 896
4 1066 35 461 85 814 438 899 899 31 170 35 298 35 1066 0 768 -4 896 -35
1066 -64 350 -284 644 -597 797 -152 75 -269 105 -487 127 -126 12 -1658 11
-1781 -1z m1805 -378 c359 -52 588 -238 674 -550 42 -153 46 -236 46 -1061 0
-825 -4 -908 -46 -1061 -72 -261 -258 -446 -519 -518 -152 -42 -236 -46 -1060
-46 -824 0 -908 4 -1060 46 -262 72 -449 259 -519 520 -39 144 -43 217 -48
920 -5 713 3 991 33 1136 65 321 279 533 601 598 45 9 140 20 210 25 193 12
1591 5 1688 -9z"/>
<path d="M3037 3513 c-8 -14 -627 -2010 -627 -2022 0 -8 44 -11 148 -11 l148
0 314 1003 c172 551 315 1010 318 1020 4 16 -8 17 -146 17 -83 0 -153 -3 -155
-7z"/>
</g>
</svg>
